<?xml version="1.0" encoding="utf-8"?>
<!-- Generator: Adobe Illustrator 16.0.0, SVG Export Plug-In . SVG Version: 6.00 Build 0)  -->
<!DOCTYPE svg PUBLIC "-//W3C//DTD SVG 1.1//EN" "http://www.w3.org/Graphics/SVG/1.1/DTD/svg11.dtd">
<svg version="1.1" xmlns="http://www.w3.org/2000/svg" xmlns:xlink="http://www.w3.org/1999/xlink" x="0px" y="0px" width="500px"
	 height="500px" viewBox="0 0 500 500" enable-background="new 0 0 500 500" xml:space="preserve">
<g id="Layer_2">
	<path fill="none" stroke="#D3D3D3" stroke-width="13" stroke-miterlimit="10" d="M194.058,202.79
		c-21.267-15.759-35.052-41.042-35.052-69.543c0-47.772,38.728-86.5,86.5-86.5s86.5,38.728,86.5,86.5
		c0,29.506-14.773,55.562-37.328,71.173"/>
	<path fill="none" stroke="#D3D3D3" stroke-width="7.9277" stroke-miterlimit="10" d="M210.045,172.299
		c-10.621-9.65-17.29-23.573-17.289-39.053c0-29.133,23.617-52.75,52.75-52.75s52.75,23.617,52.75,52.75
		c0,16.253-7.351,30.789-18.909,40.466"/>
	<path fill="none" stroke="#D3D3D3" stroke-width="14" stroke-miterlimit="10" d="M175.473,229.345
		c-28.95-21.453-47.715-55.869-47.715-94.667c0-65.031,52.719-117.75,117.75-117.75s117.749,52.719,117.749,117.75
		c0,40.166-20.109,75.634-50.813,96.886"/>
</g>
<g id="Layer_3" display="none">
	
		<line display="inline" fill="none" stroke="#D3D3D3" stroke-width="7.9277" stroke-miterlimit="10" x1="259.137" y1="91.246" x2="302.333" y2="177.746"/>
	
		<line display="inline" fill="none" stroke="#D3D3D3" stroke-width="13" stroke-miterlimit="10" x1="230.541" y1="91.246" x2="188" y2="172.333"/>
</g>
<g id="Layer_1">
	<g>
		<g>
			<path fill="#A6A3A3" d="M117.007,476.958c13.936-34.328,27.871-68.655,41.806-102.982
				c23.619-58.184,47.239-116.366,70.858-174.549c7.689-18.941,15.379-37.883,23.068-56.825c-4.822,0-9.643,0-14.464,0
				c13.935,34.328,27.871,68.655,41.805,102.982c23.62,58.183,47.239,116.366,70.858,174.549
				c7.689,18.941,15.379,37.883,23.068,56.825c1.537,3.784,4.935,6.418,9.227,5.238c3.594-0.989,6.778-5.432,5.238-9.227
				c-13.936-34.327-27.871-68.654-41.806-102.981c-23.62-58.184-47.239-116.366-70.858-174.549
				c-7.689-18.942-15.379-37.884-23.068-56.825c-2.884-7.103-11.581-7.103-14.464,0c-13.936,34.327-27.871,68.655-41.806,102.982
				c-23.619,58.184-47.239,116.366-70.858,174.549c-7.689,18.942-15.379,37.884-23.068,56.825c-1.541,3.795,1.644,8.237,5.238,9.227
				C112.073,483.376,115.471,480.742,117.007,476.958L117.007,476.958z"/>
		</g>
	</g>
	
		<line fill="none" stroke="#A6A3A3" stroke-width="13" stroke-miterlimit="10" x1="210.353" y1="227.208" x2="315.575" y2="313.209"/>
	
		<line fill="none" stroke="#A6A3A3" stroke-width="13" stroke-miterlimit="10" x1="315.575" y1="313.209" x2="145.507" y2="386.944"/>
	
		<line fill="none" stroke="#A6A3A3" stroke-width="13" stroke-miterlimit="10" x1="148.155" y1="386.944" x2="375.793" y2="461.551"/>
	
		<line fill="none" stroke="#A6A3A3" stroke-width="13" stroke-miterlimit="10" x1="116.651" y1="458.025" x2="342.834" y2="386.944"/>
	
		<line fill="none" stroke="#A6A3A3" stroke-width="13" stroke-miterlimit="10" x1="342.834" y1="386.944" x2="175.44" y2="313.209"/>
	
		<line fill="none" stroke="#A6A3A3" stroke-width="13" stroke-miterlimit="10" x1="178.36" y1="314.497" x2="280.663" y2="227.208"/>
	<circle fill="#A6A3A3" cx="245.506" cy="133.246" r="24.21"/>
</g>
</svg>
