<?xml version="1.0" encoding="utf-8"?>
<!-- Generator: Adobe Illustrator 16.0.0, SVG Export Plug-In . SVG Version: 6.00 Build 0)  -->
<!DOCTYPE svg PUBLIC "-//W3C//DTD SVG 1.1//EN" "http://www.w3.org/Graphics/SVG/1.1/DTD/svg11.dtd">
<svg version="1.1" xmlns="http://www.w3.org/2000/svg" xmlns:xlink="http://www.w3.org/1999/xlink" x="0px" y="0px" width="500px"
	 height="500px" viewBox="0 0 500 500" enable-background="new 0 0 500 500" xml:space="preserve">
<g id="Layer_5" display="none">
	<path display="inline" fill="#9B1915" d="M480,250c0,127.025-102.975,230-230,230S20,377.025,20,250C20,122.975,122.975,20,250,20
		S480,122.975,480,250z M250,171c-43.631,0-79,35.369-79,79s35.369,79,79,79s79-35.369,79-79S293.631,171,250,171z"/>
</g>
<g id="Layer_4">
	<circle fill="#A6A4A4" cx="252" cy="253" r="220"/>
</g>
<g id="Layer_2">
	<path fill="#BCBCBB" d="M444.432,372.922C403.66,437.277,331.819,480,250,480c-81.521,0-153.138-42.413-193.985-106.377
		l80.319-23.324l50.366-53.025C201.106,316.533,224.097,329,250,329c25.541,0,48.251-12.12,62.691-30.923l73.986,11.464
		L444.432,372.922z M260.428,20.232C382.613,25.684,480,126.469,480,250c0,38.047-9.238,73.937-25.594,105.547L397,292.336
		l-74.199-11.607C326.793,271.282,329,260.899,329,250c0-40.069-29.83-73.17-68.493-78.308l-28.84-70.014L260.428,20.232z
		 M46.006,356.341C29.394,324.538,20,288.366,20,250c0-123.194,96.856-223.766,218.574-229.721l-26.576,86.138l27.094,65.331
		C200.623,177.06,171,210.07,171,250c0,10.844,2.185,21.178,6.138,30.585l-50.892,52.926L46.006,356.341z"/>
</g>
<g id="Layer_3" display="none">
	<path display="inline" fill="#A6A4A4" d="M50.907,364.093C-12.605,254.086,25.086,113.42,135.093,49.907
		C135.093,49.907,183,20,224,25l-46.55,98.274l33.142,57.404c-37.785,21.814-50.73,70.13-28.916,107.916l-59.648,31.736L104,421
		C61.677,392,50.907,364.093,50.907,364.093z"/>
	<path display="inline" fill="#A6A4A4" d="M448.748,364.962c-63.513,110.007-204.179,147.698-314.186,84.187l9.453-98.733
		l66.048-32.036c37.785,21.815,86.1,8.869,107.917-28.916l64.903,18.596L479,274C475,324,448.748,364.962,448.748,364.962z"/>
	<path display="inline" fill="#A6A4A4" d="M249,20c127.025,0,230,102.975,230,230l-89,29l-62-29.001
		c0-43.629-44.369-79.998-88-79.999l-29.016-54L249,20z"/>
	<circle display="inline" fill="#A6A4A4" cx="250" cy="250" r="43.5"/>
	<path display="inline" fill="#A6A4A4" d="M382.883,326.935"/>
</g>
<g id="Layer_6" display="none">
	<ellipse display="inline" fill="#441B1B" cx="250" cy="250" rx="151.326" ry="148.301"/>
	<path display="inline" fill="#441B1B" d="M375.062,333.511"/>
</g>
</svg>
