<?xml version="1.0" encoding="utf-8"?>
<!-- Generator: Adobe Illustrator 16.0.0, SVG Export Plug-In . SVG Version: 6.00 Build 0)  -->
<!DOCTYPE svg PUBLIC "-//W3C//DTD SVG 1.1//EN" "http://www.w3.org/Graphics/SVG/1.1/DTD/svg11.dtd">
<svg version="1.1" xmlns="http://www.w3.org/2000/svg" xmlns:xlink="http://www.w3.org/1999/xlink" x="0px" y="0px" width="400px"
	 height="400px" viewBox="0 0 400 400" enable-background="new 0 0 400 400" xml:space="preserve">
<g id="Layer_1">
	<g id="Layer_1_1_">
	</g>
	<g id="Layer_4">
	</g>
	<g id="Layer_5" display="none">
		<g display="inline">
			<path fill="#A6A5A5" d="M382.794,257.917c0,22.276-46.628,40.333-104.146,40.333c-57.518,0-104.146-18.057-104.146-40.333
				v-32.499h208.292V257.917z"/>
			<ellipse fill="#BCBCBB" cx="278.352" cy="224.002" rx="104.146" ry="33.917"/>
		</g>
	</g>
	<g id="Layer_3">
	</g>
	<g id="Layer_6">
	</g>
	<g>
		<defs>
			<rect id="SVGID_1_" x="210" y="-21.5" width="255.5" height="492"/>
		</defs>
		<clipPath id="SVGID_2_">
			<use xlink:href="#SVGID_1_"  overflow="visible"/>
		</clipPath>
		<g id="Layer_2" clip-path="url(#SVGID_2_)">
			<g>
				<path fill="none" stroke="#A6A5A5" stroke-width="7.7838" stroke-miterlimit="10" d="M330.101,343.074
					c0,24.771-58.249,44.848-130.101,44.848S69.9,367.845,69.9,343.074V56.927c0-24.769,58.249-44.849,130.101-44.849
					s130.101,20.08,130.101,44.849V343.074z"/>
				<g>
					<path fill="#A6A5A5" d="M316.53,327.876c0,24.771-51.85,44.851-115.809,44.851c-63.958,0-115.808-20.08-115.808-44.851v-36.137
						H316.53V327.876z"/>
					<path fill="#BCBCBB" d="M200.391,252.449c63.959,0,115.807,16.884,115.807,37.716c0,20.83-51.848,37.713-115.807,37.713
						c-63.957,0-115.807-16.883-115.807-37.713C84.584,269.333,136.434,252.449,200.391,252.449z"/>
				</g>
				<g opacity="0.7">
					<g>
						<path fill="#A6A5A5" d="M305.633,76.689c-29.49,14.803-64.611,18.589-97.14,19.581c-35.584,1.088-73.179-1.946-106.75-14.532
							c-0.75-0.281,2.538,2.815,3.599,3.215c33.234,12.46,70.026,15.413,105.238,14.73c33.208-0.646,69.448-4.613,99.549-19.723
							C310.031,80.009,306.864,76.071,305.633,76.689L305.633,76.689z"/>
					</g>
				</g>
				<path fill="#A6A5A5" d="M255.413,49.24c0,10.182-24.811,18.437-55.413,18.437c-30.604,0-55.413-8.253-55.413-18.437V31.901
					c0-10.182,24.81-9.54,55.413-9.54c30.603,0,55.413-0.643,55.413,9.54V49.24L255.413,49.24z"/>
				<path fill="#BCBCBB" d="M200,50.803c-30.604,0-55.413-8.252-55.413-18.435v-0.469c0-10.181,24.81-18.436,55.413-18.436
					c30.603,0,55.413,8.254,55.413,18.436v0.469C255.413,42.551,230.603,50.803,200,50.803"/>
			</g>
		</g>
	</g>
</g>
<g id="Layer_3_1_">
</g>
<g id="Layer_2_1_">
	<g>
		<defs>
			<rect id="SVGID_3_" x="-70.5" y="-21.5" width="260.5" height="483"/>
		</defs>
		<clipPath id="SVGID_4_">
			<use xlink:href="#SVGID_3_"  overflow="visible"/>
		</clipPath>
		<g clip-path="url(#SVGID_4_)">
			<path fill="#BBBBBA" d="M375.934,202.441c0,99.444-80.616,180.061-180.061,180.061S15.813,301.886,15.813,202.441
				c0-99.446,80.616-180.062,180.061-180.062S375.934,102.995,375.934,202.441z M195.873,113.585
				c-49.075,0-88.856,39.781-88.856,88.856c0,49.073,39.781,88.855,88.856,88.855c49.073,0,88.855-39.782,88.855-88.855
				C284.729,153.367,244.947,113.585,195.873,113.585z"/>
			<path fill="#282828" d="M63.994,335.436c-34.323-33.978-55.586-81.12-55.586-133.231c0-51.766,20.982-98.633,54.907-132.557
				l13.979,13.978c-30.347,30.347-49.116,72.271-49.116,118.58c0,46.307,18.77,88.232,49.116,118.579L63.994,335.436z
				 M328.23,69.445c34.043,33.939,55.107,80.889,55.107,132.759c0,51.559-20.814,98.257-54.499,132.147l-14.386-13.568
				c30.345-30.347,49.116-72.272,49.116-118.579c0-46.309-18.771-88.232-49.116-118.58"/>
			<line fill="none" x1="391.592" y1="7.321" x2="391.592" y2="7.321"/>
			<path fill="#282828" d="M301.562,202.441c0,36.356-18.359,68.425-46.311,87.44c-6.292,4.281-13.118,92.452-20.282,95.311
				c-12.107,4.83-25.314,7.486-39.144,7.486c-13.792,0-26.969-2.642-39.049-7.448c-6.95-2.764-13.49-90.796-19.624-94.902
				c-28.321-18.962-46.967-51.246-46.967-87.887c0-36.634,18.638-68.914,46.948-87.876c6.111-4.093,12.673-92.115,19.595-94.876
				c12.105-4.831,25.315-5.092,39.145-5.092c13.83,0,27.04,0.262,39.146,5.092c7.156,2.855,13.926,91.021,20.213,95.295
				C283.195,134,301.562,166.076,301.562,202.441z M195.873,124.153c-43.237,0-78.288,35.051-78.288,78.289
				c0,43.236,35.051,78.287,78.288,78.287c43.236,0,78.287-35.051,78.287-78.287C274.16,159.204,239.11,124.153,195.873,124.153z"/>
		</g>
	</g>
</g>
</svg>
