<?xml version="1.0" encoding="utf-8"?>
<!-- Generator: Adobe Illustrator 16.0.0, SVG Export Plug-In . SVG Version: 6.00 Build 0)  -->
<!DOCTYPE svg PUBLIC "-//W3C//DTD SVG 1.1//EN" "http://www.w3.org/Graphics/SVG/1.1/DTD/svg11.dtd">
<svg version="1.1" xmlns="http://www.w3.org/2000/svg" xmlns:xlink="http://www.w3.org/1999/xlink" x="0px" y="0px" width="500px"
	 height="500px" viewBox="0 0 500 500" enable-background="new 0 0 500 500" xml:space="preserve">
<g id="Layer_2_1_">
	<rect x="5.5" y="6.5" fill="#FFFFFF" stroke="#A6A4A4" stroke-width="9.79" stroke-miterlimit="10" width="490" height="489"/>
</g>
<g id="Layer_3_1_">
	<polygon fill="#A6A4A4" points="175,160 250.002,40 325,160 	"/>
	<polygon fill="#A6A4A4" points="175,300 250.002,180 325,300 	"/>
	<polygon fill="#A6A4A4" points="175,440 250.002,320 325,440 	"/>
</g>
<g id="Layer_4">
	<path fill="none" stroke="#A6A4A4" stroke-width="5.3198" stroke-miterlimit="10" d="M461.184,121.485
		c0,4.928-3.994,8.922-8.921,8.922H415.09c-4.926,0-8.921-3.994-8.921-8.922V54.203c0-4.928,3.995-8.922,8.921-8.922h37.173
		c4.927,0,8.921,3.995,8.921,8.922V121.485z"/>
	<path fill="#A6A4A4" d="M446.316,46.582v-8.177c0-1.231-0.999-2.23-2.23-2.23h-20.816c-1.232,0-2.231,0.999-2.231,2.23v7.992
		L446.316,46.582z"/>
	<rect x="406.169" y="180" fill="#A6A4A4" width="55.015" height="55.015"/>
	<line fill="#A6A4A4" stroke="#A6A4A4" stroke-width="2" stroke-miterlimit="10" x1="459.184" y1="183" x2="476.842" y2="165.342"/>
	<line fill="#A6A4A4" stroke="#A6A4A4" stroke-width="2" stroke-miterlimit="10" x1="408.566" y1="184" x2="390.907" y2="166.342"/>
</g>
<g id="Layer_5">
	<path fill="#A6A4A4" d="M456.786,111.82v6.247c0,4.14-3.354,7.495-7.494,7.495h-31.23c-4.141,0-7.496-3.355-7.496-7.495v-6.09
		L456.786,111.82z"/>
</g>
</svg>
