<?xml version="1.0" encoding="utf-8"?>
<!-- Generator: Adobe Illustrator 16.0.0, SVG Export Plug-In . SVG Version: 6.00 Build 0)  -->
<!DOCTYPE svg PUBLIC "-//W3C//DTD SVG 1.1//EN" "http://www.w3.org/Graphics/SVG/1.1/DTD/svg11.dtd">
<svg version="1.1" id="Layer_1" xmlns="http://www.w3.org/2000/svg" xmlns:xlink="http://www.w3.org/1999/xlink" x="0px" y="0px"
	 width="500px" height="500px" viewBox="0 0 500 500" enable-background="new 0 0 500 500" xml:space="preserve">
<g>
	
		<linearGradient id="SVGID_1_" gradientUnits="userSpaceOnUse" x1="479.387" y1="113.2568" x2="607.2737" y2="113.2568" gradientTransform="matrix(0.8916 0.4528 0.4528 -0.8916 -159.5819 82.5725)">
		<stop  offset="0" style="stop-color:#898989"/>
		<stop  offset="0.0591" style="stop-color:#949494"/>
		<stop  offset="0.184" style="stop-color:#A6A6A6"/>
		<stop  offset="0.335" style="stop-color:#B3B3B2"/>
		<stop  offset="0.5367" style="stop-color:#BABAB9"/>
		<stop  offset="1" style="stop-color:#BCBCBB"/>
	</linearGradient>
	<path fill="url(#SVGID_1_)" d="M394.834,331.98c2.041-34.974-85.444-52.877-108.5-56.981c0-14.999,10.051-11.834,10.051-11.834
		l55.006-128.045c0,0,114.313,24.435,114.025,57.903L394.834,331.98z"/>
	<path fill="#BCBCBB" d="M293.268,270.423c2.342-40.271-114.017-57.899-114.017-57.899l70.566-138.956
		c0,0,114.31,24.438,114.021,57.904L293.268,270.423z"/>
</g>
<g>
	
		<rect x="141.65" y="35.683" transform="matrix(-0.8916 -0.4528 0.4528 -0.8916 185.7725 499.2178)" fill="#282828" width="21.977" height="383.38"/>
	<path fill="#282828" d="M248.343,62.333c-0.878,1.722-5.978,0.891-11.388-1.858c-5.402-2.746-9.087-6.37-8.207-8.092
		c0.87-1.726,5.969-0.886,11.379,1.858C245.531,56.986,249.215,60.61,248.343,62.333z"/>
	<path fill="#808080" d="M75.654,403.266c-0.878,1.719-5.978,0.887-11.38-1.863c-5.41-2.74-9.094-6.368-8.215-8.088
		c0.872-1.726,5.97-0.895,11.38,1.855C72.849,397.918,76.525,401.546,75.654,403.266z"/>
</g>
</svg>
