<?xml version="1.0" encoding="utf-8"?>
<!-- Generator: Adobe Illustrator 16.0.0, SVG Export Plug-In . SVG Version: 6.00 Build 0)  -->
<!DOCTYPE svg PUBLIC "-//W3C//DTD SVG 1.1//EN" "http://www.w3.org/Graphics/SVG/1.1/DTD/svg11.dtd">
<svg version="1.1" xmlns="http://www.w3.org/2000/svg" xmlns:xlink="http://www.w3.org/1999/xlink" x="0px" y="0px" width="500px"
	 height="500px" viewBox="0 0 500 500" enable-background="new 0 0 500 500" xml:space="preserve">
<g id="Layer_5">
</g>
<g id="Layer_2">
	<path fill="#BCBCBB" d="M480,250c0,127.025-102.975,230-230,230S20,377.025,20,250S122.975,20,250,20S480,122.975,480,250z
		 M250,136.5c-62.686,0-113.5,50.814-113.5,113.5c0,62.685,50.814,113.5,113.5,113.5c62.685,0,113.5-50.815,113.5-113.5
		C363.5,187.314,312.685,136.5,250,136.5z"/>
</g>
<g id="Layer_6">
	<path fill="#282828" d="M81.545,419.882c-43.842-43.4-71.002-103.62-71.002-170.185c0-66.124,26.802-125.988,70.135-169.321
		l17.856,17.855c-38.764,38.763-62.739,92.314-62.739,151.466c0,59.151,23.976,112.703,62.739,151.467L81.545,419.882z
		 M419.064,80.118c43.484,43.354,70.393,103.324,70.393,169.579c0,65.859-26.588,125.508-69.615,168.8l-18.375-17.333
		c38.762-38.764,62.738-92.315,62.738-151.467s-23.977-112.703-62.738-151.466"/>
	<line fill="none" x1="500" y1="0.765" x2="500" y2="0.765"/>
</g>
<g id="Layer_4">
	<path fill="#282828" d="M385,250c0,46.439-23.449,87.402-59.153,111.694c-8.037,5.469-16.757,118.093-25.907,121.743
		c-15.465,6.17-32.336,9.563-50,9.563c-17.618,0-34.447-3.375-49.878-9.513c-8.878-3.532-17.232-115.979-25.067-121.224
		C138.818,338.044,115,296.804,115,250c0-46.793,23.808-88.026,59.971-112.247c7.806-5.228,16.187-117.663,25.028-121.19
		c15.464-6.17,32.336-6.504,50.001-6.504c17.666,0,34.539,0.334,50.004,6.505c9.141,3.647,17.789,116.265,25.818,121.725
		C361.54,162.578,385,203.549,385,250z M250,150c-55.229,0-100,44.771-100,100s44.771,100,100,100s100-44.771,100-100
		S305.229,150,250,150z"/>
</g>
<g id="Layer_3">
</g>
</svg>
