<?xml version="1.0" encoding="utf-8"?>
<!-- Generator: Adobe Illustrator 16.0.0, SVG Export Plug-In . SVG Version: 6.00 Build 0)  -->
<!DOCTYPE svg PUBLIC "-//W3C//DTD SVG 1.1//EN" "http://www.w3.org/Graphics/SVG/1.1/DTD/svg11.dtd">
<svg version="1.1" id="Layer_1" xmlns="http://www.w3.org/2000/svg" xmlns:xlink="http://www.w3.org/1999/xlink" x="0px" y="0px"
	 width="400px" height="400px" viewBox="0 0 400 400" enable-background="new 0 0 400 400" xml:space="preserve">
<g id="Layer_1_1_">
</g>
<g id="Layer_4">
</g>
<g id="Layer_5" display="none">
	<g display="inline">
		<path fill="#A6A5A5" d="M382.794,257.917c0,22.276-46.628,40.333-104.146,40.333c-57.518,0-104.146-18.057-104.146-40.333v-32.499
			h208.292V257.917z"/>
		<ellipse fill="#BCBCBB" cx="278.352" cy="224.002" rx="104.146" ry="33.917"/>
	</g>
</g>
<g id="Layer_3">
</g>
<g id="Layer_6">
</g>
<g>
	<polyline fill="#BBBBBA" stroke="#FFFFFF" stroke-width="0.9561" stroke-miterlimit="10" points="369.543,128.475 209.205,118.335 
		206.912,237.923 369.543,248.634 	"/>
	<polygon fill="#A5A3A3" stroke="#FFFFFF" stroke-width="0.9561" stroke-miterlimit="10" points="49.532,128.475 209.205,118.335 
		209.205,211.275 49.532,226.313 	"/>
	<polyline fill="#BBBBBA" stroke="#FFFFFF" stroke-width="0.9561" stroke-miterlimit="10" points="209.205,149.205 49.532,128.475 
		49.532,249.008 209.205,339.077 	"/>
	<polygon fill="#A5A3A3" stroke="#FFFFFF" stroke-width="0.9561" stroke-miterlimit="10" points="209.205,149.205 209.205,339.077 
		369.543,248.634 369.543,128.475 	"/>
	<polygon fill="#BBBBBA" stroke="#FFFFFF" stroke-width="0.9561" stroke-miterlimit="10" points="209.205,149.205 247.487,196.464 
		396.319,157.24 369.543,128.475 	"/>
	<polygon fill="#BBBBBA" stroke="#FFFFFF" stroke-width="0.9561" stroke-miterlimit="10" points="209.205,149.205 179.546,203.142 
		24.994,162.474 49.532,128.475 	"/>
</g>
</svg>
