<?xml version="1.0" encoding="utf-8"?>
<!-- Generator: Adobe Illustrator 16.0.0, SVG Export Plug-In . SVG Version: 6.00 Build 0)  -->
<!DOCTYPE svg PUBLIC "-//W3C//DTD SVG 1.1//EN" "http://www.w3.org/Graphics/SVG/1.1/DTD/svg11.dtd">
<svg version="1.1" id="Layer_1" xmlns="http://www.w3.org/2000/svg" xmlns:xlink="http://www.w3.org/1999/xlink" x="0px" y="0px"
	 width="400px" height="400px" viewBox="0 0 400 400" enable-background="new 0 0 400 400" xml:space="preserve">
<g id="Layer_1_1_">
</g>
<g id="Layer_4">
</g>
<g id="Layer_5" display="none">
	<g display="inline">
		<path fill="#A6A5A5" d="M382.794,257.917c0,22.276-46.628,40.333-104.146,40.333c-57.518,0-104.146-18.057-104.146-40.333v-32.499
			h208.292V257.917z"/>
		<ellipse fill="#BCBCBB" cx="278.352" cy="224.002" rx="104.146" ry="33.917"/>
	</g>
</g>
<g id="Layer_3">
</g>
<g id="Layer_6">
</g>
<g id="Layer_2">
	<g>
		<path fill="none" stroke="#A6A5A5" stroke-width="7" stroke-miterlimit="10" d="M311.625,325.666
			c0,22.275-52.383,40.333-117,40.333s-117-18.058-117-40.333V68.333c0-22.275,52.383-40.333,117-40.333s117,18.058,117,40.333
			V325.666z"/>
		<g>
			<path fill="#A6A5A5" d="M299.419,311.999c0,22.276-46.628,40.333-104.146,40.333c-57.518,0-104.146-18.057-104.146-40.333V279.5
				h208.292V311.999z"/>
			<ellipse fill="#BCBCBB" cx="194.977" cy="278.084" rx="104.146" ry="33.917"/>
		</g>
		<g opacity="0.7">
			<g>
				<path fill="#A6A5A5" d="M289.621,86.105c-26.521,13.313-58.104,16.717-87.358,17.61c-31.999,0.978-65.81-1.75-96-13.069
					c-0.674-0.253,2.281,2.532,3.236,2.891c29.886,11.205,62.975,13.861,94.641,13.247c29.865-0.58,62.454-4.148,89.524-17.737
					C293.576,89.091,290.729,85.55,289.621,86.105L289.621,86.105z"/>
			</g>
		</g>
		<path fill="#A6A5A5" d="M244.458,61.421c0,9.156-22.312,16.579-49.833,16.579c-27.522,0-49.833-7.422-49.833-16.579V45.827
			c0-9.156,22.311-8.579,49.833-8.579c27.521,0,49.833-0.578,49.833,8.579V61.421L244.458,61.421z"/>
		<path fill="#BCBCBB" d="M194.625,62.826c-27.522,0-49.833-7.422-49.833-16.579v-0.421c0-9.156,22.311-16.579,49.833-16.579
			c27.521,0,49.833,7.422,49.833,16.579v0.421C244.458,55.404,222.147,62.826,194.625,62.826"/>
	</g>
</g>
</svg>
